<svg width="100" height="100" viewBox="0 0 100 100" fill="none" xmlns="http://www.w3.org/2000/svg">
<g id="&#240;&#159;&#166;&#134; icon &#34;User Circle icon&#34;">
<path id="Vector" d="M50 0C22.379 0 0 22.379 0 50C0 77.621 22.379 100 50 100C77.621 100 100 77.621 100 50C100 22.379 77.621 0 50 0ZM50 19.3548C59.7984 19.3548 67.7419 27.2984 67.7419 37.0968C67.7419 46.8952 59.7984 54.8387 50 54.8387C40.2016 54.8387 32.2581 46.8952 32.2581 37.0968C32.2581 27.2984 40.2016 19.3548 50 19.3548ZM50 88.7097C38.1653 88.7097 27.5605 83.3468 20.4637 74.9597C24.254 67.8226 31.6734 62.9032 40.3226 62.9032C40.8065 62.9032 41.2903 62.9839 41.754 63.125C44.375 63.9718 47.1169 64.5161 50 64.5161C52.8831 64.5161 55.6452 63.9718 58.246 63.125C58.7097 62.9839 59.1936 62.9032 59.6774 62.9032C68.3266 62.9032 75.746 67.8226 79.5363 74.9597C72.4395 83.3468 61.8347 88.7097 50 88.7097Z" fill="#05204A"/>
</g>
</svg>
