<svg width="30" height="30" viewBox="0 0 30 30" fill="none" xmlns="http://www.w3.org/2000/svg">
<g id="&#240;&#159;&#166;&#134; icon &#34;signal&#34;">
<path id="Vector" d="M9.72973 16.875H7.2973C6.84932 16.875 6.48649 17.2945 6.48649 17.8125V29.0625C6.48649 29.5805 6.84932 30 7.2973 30H9.72973C10.1777 30 10.5405 29.5805 10.5405 29.0625V17.8125C10.5405 17.2945 10.1777 16.875 9.72973 16.875ZM3.24324 22.5H0.810811C0.362838 22.5 0 22.9195 0 23.4375V29.0625C0 29.5805 0.362838 30 0.810811 30H3.24324C3.69122 30 4.05405 29.5805 4.05405 29.0625V23.4375C4.05405 22.9195 3.69122 22.5 3.24324 22.5ZM16.2162 11.25H13.7838C13.3358 11.25 12.973 11.6695 12.973 12.1875V29.0625C12.973 29.5805 13.3358 30 13.7838 30H16.2162C16.6642 30 17.027 29.5805 17.027 29.0625V12.1875C17.027 11.6695 16.6642 11.25 16.2162 11.25ZM22.7027 5.625H20.2703C19.8223 5.625 19.4595 6.04453 19.4595 6.5625V29.0625C19.4595 29.5805 19.8223 30 20.2703 30H22.7027C23.1507 30 23.5135 29.5805 23.5135 29.0625V6.5625C23.5135 6.04453 23.1507 5.625 22.7027 5.625ZM29.1892 0H26.7568C26.3088 0 25.9459 0.419531 25.9459 0.9375V29.0625C25.9459 29.5805 26.3088 30 26.7568 30H29.1892C29.6372 30 30 29.5805 30 29.0625V0.9375C30 0.419531 29.6372 0 29.1892 0Z" fill="black"/>
</g>
</svg>
