<svg width="100" height="90" viewBox="0 0 100 90" fill="none" xmlns="http://www.w3.org/2000/svg">
<g id="&#240;&#159;&#166;&#134; icon &#34;car&#34;">
<path id="Vector" d="M93.86 30.775L87.02 10.255C84.975 4.12 79.26 0 72.795 0H27.205C20.74 0 15.025 4.12 12.98 10.255L6.14 30.775C2.535 32.285 0 35.845 0 40V65C0 68.69 2.02 71.88 5 73.615V79.485V85C5 87.765 7.235 90 10 90H15C17.765 90 20 87.765 20 85V75H80V85C80 87.765 82.235 90 85 90H90C92.765 90 95 87.765 95 85V73.615C97.98 71.88 100 68.695 100 65V40C100 35.845 97.465 32.285 93.86 30.775ZM27.205 10H72.79C74.945 10 76.855 11.37 77.535 13.42L83.065 30H79.095H20.905H16.935L22.46 13.42C23.145 11.37 25.055 10 27.205 10ZM17.5 60C13.36 60 10 56.64 10 52.5C10 48.36 13.36 45 17.5 45C21.64 45 25 48.36 25 52.5C25 56.64 21.64 60 17.5 60ZM82.5 60C78.36 60 75 56.64 75 52.5C75 48.36 78.36 45 82.5 45C86.64 45 90 48.36 90 52.5C90 56.64 86.64 60 82.5 60Z" fill="#FFFFDE"/>
</g>
</svg>
