<svg width="30" height="30" viewBox="0 0 30 30" fill="none" xmlns="http://www.w3.org/2000/svg">
<g id="&#240;&#159;&#166;&#134; icon &#34;calendar&#34;">
<g id="Group">
<path id="Vector" d="M22.917 3.33979V1.08435C22.917 0.491571 22.3503 0 21.667 0C20.9836 0 20.417 0.491571 20.417 1.08435V3.25304H9.58367V1.08435C9.58367 0.491571 9.01701 0 8.33367 0C7.65034 0 7.08367 0.491571 7.08367 1.08435V3.33979C2.58367 3.70124 0.400341 6.02897 0.0670079 9.48443C0.0336746 9.90371 0.433675 10.2507 0.900341 10.2507H29.1003C29.5836 10.2507 29.9836 9.88925 29.9336 9.48443C29.6003 6.02897 27.417 3.70124 22.917 3.33979Z" fill="black"/>
<path id="Vector_2" d="M28.3333 12.4192H1.66667C0.75 12.4192 0 13.0697 0 13.8649V22.771C0 27.1084 2.5 30 8.33333 30H21.6667C27.5 30 30 27.1084 30 22.771V13.8649C30 13.0697 29.25 12.4192 28.3333 12.4192ZM10.35 24.5205C10.2667 24.5783 10.1833 24.6506 10.1 24.6939C10 24.7518 9.9 24.7952 9.8 24.8241C9.7 24.8674 9.6 24.8964 9.5 24.9108C9.38333 24.9253 9.28333 24.9397 9.16667 24.9397C8.95 24.9397 8.73333 24.8964 8.53333 24.8241C8.31667 24.7518 8.15 24.6506 7.98333 24.5205C7.68333 24.2458 7.5 23.8698 7.5 23.4939C7.5 23.118 7.68333 22.7421 7.98333 22.4674C8.15 22.3373 8.31667 22.2361 8.53333 22.1638C8.83333 22.0481 9.16667 22.0192 9.5 22.0771C9.6 22.0915 9.7 22.1204 9.8 22.1638C9.9 22.1927 10 22.2361 10.1 22.2939C10.1833 22.3518 10.2667 22.4096 10.35 22.4674C10.65 22.7421 10.8333 23.118 10.8333 23.4939C10.8333 23.8698 10.65 24.2458 10.35 24.5205ZM10.35 19.4602C10.0333 19.7204 9.6 19.8794 9.16667 19.8794C8.73333 19.8794 8.3 19.7204 7.98333 19.4602C7.68333 19.1855 7.5 18.8096 7.5 18.4336C7.5 18.0577 7.68333 17.6818 7.98333 17.4071C8.45 17.0023 9.18333 16.8722 9.8 17.1035C10.0167 17.1758 10.2 17.277 10.35 17.4071C10.65 17.6818 10.8333 18.0577 10.8333 18.4336C10.8333 18.8096 10.65 19.1855 10.35 19.4602ZM16.1833 24.5205C15.8667 24.7807 15.4333 24.9397 15 24.9397C14.5667 24.9397 14.1333 24.7807 13.8167 24.5205C13.5167 24.2458 13.3333 23.8698 13.3333 23.4939C13.3333 23.118 13.5167 22.7421 13.8167 22.4674C14.4333 21.9325 15.5667 21.9325 16.1833 22.4674C16.4833 22.7421 16.6667 23.118 16.6667 23.4939C16.6667 23.8698 16.4833 24.2458 16.1833 24.5205ZM16.1833 19.4602C16.1 19.518 16.0167 19.5758 15.9333 19.6337C15.8333 19.6915 15.7333 19.7349 15.6333 19.7638C15.5333 19.8072 15.4333 19.8361 15.3333 19.8505C15.2167 19.865 15.1167 19.8794 15 19.8794C14.5667 19.8794 14.1333 19.7204 13.8167 19.4602C13.5167 19.1855 13.3333 18.8096 13.3333 18.4336C13.3333 18.0577 13.5167 17.6818 13.8167 17.4071C13.9667 17.277 14.15 17.1758 14.3667 17.1035C14.9833 16.8722 15.7167 17.0023 16.1833 17.4071C16.4833 17.6818 16.6667 18.0577 16.6667 18.4336C16.6667 18.8096 16.4833 19.1855 16.1833 19.4602ZM22.0167 24.5205C21.7 24.7807 21.2667 24.9397 20.8333 24.9397C20.4 24.9397 19.9667 24.7807 19.65 24.5205C19.35 24.2458 19.1667 23.8698 19.1667 23.4939C19.1667 23.118 19.35 22.7421 19.65 22.4674C20.2667 21.9325 21.4 21.9325 22.0167 22.4674C22.3167 22.7421 22.5 23.118 22.5 23.4939C22.5 23.8698 22.3167 24.2458 22.0167 24.5205ZM22.0167 19.4602C21.9333 19.518 21.85 19.5758 21.7667 19.6337C21.6667 19.6915 21.5667 19.7349 21.4667 19.7638C21.3667 19.8072 21.2667 19.8361 21.1667 19.8505C21.05 19.865 20.9333 19.8794 20.8333 19.8794C20.4 19.8794 19.9667 19.7204 19.65 19.4602C19.35 19.1855 19.1667 18.8096 19.1667 18.4336C19.1667 18.0577 19.35 17.6818 19.65 17.4071C19.8167 17.277 19.9833 17.1758 20.2 17.1035C20.5 16.9878 20.8333 16.9589 21.1667 17.0168C21.2667 17.0312 21.3667 17.0601 21.4667 17.1035C21.5667 17.1324 21.6667 17.1758 21.7667 17.2336L22.0167 17.4071C22.3167 17.6818 22.5 18.0577 22.5 18.4336C22.5 18.8096 22.3167 19.1855 22.0167 19.4602Z" fill="black"/>
</g>
</g>
</svg>
