<svg width="25" height="25" viewBox="0 0 25 25" fill="none" xmlns="http://www.w3.org/2000/svg">
<g id="&#240;&#159;&#166;&#134; icon &#34;Gender male&#34;">
<path id="Vector" d="M14.6076 0V2.07849H21.4519L13.4618 10.0687C11.7856 8.76642 9.67615 8.15197 7.56285 8.35046C5.44955 8.54896 3.49136 9.54548 2.08703 11.1371C0.682697 12.7287 -0.0621824 14.7958 0.00406882 16.9174C0.0703201 19.0389 0.94272 21.0555 2.44363 22.5564C3.94453 24.0573 5.96108 24.9297 8.08265 24.9959C10.2042 25.0622 12.2713 24.3173 13.8629 22.913C15.4545 21.5086 16.451 19.5504 16.6495 17.4372C16.848 15.3239 16.2336 13.2144 14.9313 11.5382L22.9215 3.54808V10.3924H25V0H14.6076ZM8.3721 22.8634C7.13884 22.8634 5.93328 22.4977 4.90787 21.8125C3.88245 21.1273 3.08323 20.1535 2.61129 19.0141C2.13934 17.8747 2.01586 16.621 2.25645 15.4114C2.49705 14.2019 3.09092 13.0908 3.96297 12.2188C4.83501 11.3467 5.94606 10.7528 7.15562 10.5122C8.36519 10.2717 9.61893 10.3951 10.7583 10.8671C11.8977 11.339 12.8715 12.1382 13.5567 13.1637C14.2419 14.1891 14.6076 15.3946 14.6076 16.6279C14.6057 18.2811 13.9482 19.866 12.7792 21.035C11.6103 22.204 10.0253 22.8615 8.3721 22.8634Z" fill="black"/>
</g>
</svg>
