<svg width="39" height="30" viewBox="0 0 39 30" fill="none" xmlns="http://www.w3.org/2000/svg">
<g id="&#240;&#159;&#166;&#134; icon &#34;Alternate Tachometer&#34;">
<path id="Vector" d="M19.2857 0C8.63438 0 0 8.63437 0 19.2857C0 22.8214 0.954241 26.1335 2.61563 28.9821C2.99129 29.6263 3.70714 30 4.45313 30H34.1183C34.8643 30 35.5801 29.6263 35.9558 28.9821C37.6172 26.1335 38.5714 22.8214 38.5714 19.2857C38.5714 8.63437 29.9371 0 19.2857 0ZM19.2857 4.28571C20.2708 4.28571 21.0656 4.96406 21.3161 5.86942C21.2417 6.02076 21.1393 6.15268 21.085 6.31607L20.4676 8.16897C20.1241 8.40268 19.733 8.57143 19.2864 8.57143C18.1031 8.57143 17.1435 7.61183 17.1435 6.42857C17.1435 5.24531 18.1025 4.28571 19.2857 4.28571ZM6.42857 23.5714C5.24531 23.5714 4.28571 22.6118 4.28571 21.4286C4.28571 20.2453 5.24531 19.2857 6.42857 19.2857C7.61183 19.2857 8.57143 20.2453 8.57143 21.4286C8.57143 22.6118 7.61183 23.5714 6.42857 23.5714ZM9.64286 12.8571C8.4596 12.8571 7.5 11.8975 7.5 10.7143C7.5 9.53103 8.4596 8.57143 9.64286 8.57143C10.8261 8.57143 11.7857 9.53103 11.7857 10.7143C11.7857 11.8975 10.8261 12.8571 9.64286 12.8571ZM26.1676 8.00826L22.0607 20.3297C22.9775 21.1158 23.5714 22.2683 23.5714 23.5714C23.5714 24.3562 23.3451 25.0815 22.9768 25.7143H15.5946C15.2263 25.0815 15 24.3562 15 23.5714C15 21.2987 16.7746 19.4578 19.0112 19.3132L23.1188 6.99107C23.398 6.15 24.306 5.68862 25.1518 5.97522C25.9935 6.2558 26.4475 7.16652 26.1676 8.00826ZM27.1493 11.8386L28.1886 8.72143C28.421 8.63504 28.6661 8.5721 28.9286 8.5721C30.1118 8.5721 31.0714 9.5317 31.0714 10.715C31.0714 11.8982 30.1118 12.8578 28.9286 12.8578C28.1665 12.8571 27.5297 12.4373 27.1493 11.8386ZM32.1429 23.5714C30.9596 23.5714 30 22.6118 30 21.4286C30 20.2453 30.9596 19.2857 32.1429 19.2857C33.3261 19.2857 34.2857 20.2453 34.2857 21.4286C34.2857 22.6118 33.3261 23.5714 32.1429 23.5714Z" fill="black"/>
</g>
</svg>
