<svg width="100" height="94" viewBox="0 0 100 94" fill="none" xmlns="http://www.w3.org/2000/svg">
<g id="&#240;&#159;&#166;&#134; icon &#34;racer&#34;">
<path id="Vector" d="M60.395 56.0376C64.8928 53.3389 67.9913 49.4408 69.8903 44.5432C72.4891 38.2463 73.7885 31.7494 73.8884 25.0527C73.9884 22.4539 73.7885 19.9551 73.1887 17.5563C71.3896 10.0599 67.5915 4.3627 60.0951 1.56406C56.097 0.0647892 51.8991 -0.135114 47.7011 0.0647892C34.5075 0.76445 28.0107 9.56018 26.7113 20.3549C25.9117 27.7513 27.1111 34.8479 29.41 41.8445C31.3091 47.5417 34.2077 52.6393 39.605 55.8377C42.1038 57.337 44.6026 58.8363 47.3013 60.1356C49.2004 61.0352 51.0995 61.1351 53.0985 60.1356C55.5973 58.8363 57.9961 57.4369 60.395 56.0376ZM52.2989 43.4437C51.6992 46.6422 51.0995 49.8406 50.4998 52.9391C50.4998 53.239 50.3998 53.4389 50.2999 53.7387H50C49.4003 50.2404 48.7006 46.8421 48.1009 43.4437C47.901 42.3443 47.5012 41.9445 46.4018 41.7446C40.7045 40.9449 35.7069 38.2463 30.8093 35.2477C30.3096 34.8479 30.2096 34.4481 30.1097 33.8484C29.41 30.3501 29.1101 26.7518 29.2101 23.1536C29.31 20.9546 29.31 20.9546 31.509 20.7547C36.7065 20.4549 41.9039 20.3549 47.0015 20.3549C54.198 20.3549 61.2945 20.3549 68.3911 20.7547C70.9898 20.9546 70.9898 20.8547 71.0898 23.5534C71.1897 26.9517 70.8899 30.3501 70.2901 33.7484C70.0902 34.548 69.7904 35.1478 68.9908 35.5476C64.1931 38.4462 59.1955 41.1448 53.4983 41.8445C52.4988 42.0444 52.3988 42.7441 52.2989 43.4437ZM96.5774 68.2317C94.1786 65.8329 91.28 64.5335 88.0815 63.6339C83.3838 62.3346 78.4862 61.2351 73.6885 59.9357C72.0893 59.5359 70.3901 59.1361 69.1907 58.0366C67.3916 56.3375 66.7918 56.2375 64.7928 57.6368C61.4944 59.9357 57.9961 62.1347 54.198 63.7339C53.0985 64.1337 52.6987 64.7334 52.6987 65.9328V91.5204C52.5987 92.6199 52.8986 93.0197 54.098 93.0197C61.6943 93.1196 69.1907 92.8198 76.687 91.7203C82.6841 90.7208 88.6812 89.6213 94.0786 86.4229C100.875 82.5248 101.975 73.9289 96.5774 68.2317ZM84.0835 78.3268C84.0835 79.3263 83.7836 79.5262 82.7841 79.5262H73.3886C70.3901 79.5262 67.3916 79.4263 64.2931 79.5262C63.0936 79.5262 62.7938 79.1264 62.7938 78.0269C62.8937 76.0279 62.8937 74.0289 62.7938 72.0299C62.7938 71.1303 63.1936 70.8304 64.0932 70.8304H82.7841C83.7836 70.8304 84.1834 71.1303 84.1834 72.2298C84.0835 74.2288 83.9835 76.2278 84.0835 78.3268ZM47.3013 78.7266V65.9328C47.3013 64.7334 46.9015 64.1337 45.802 63.7339C42.0039 62.1347 38.5056 59.9357 35.2072 57.6368C33.2082 56.2375 32.7084 56.3375 30.9093 58.0366C29.6099 59.1361 27.9107 59.5359 26.3115 59.9357C21.5138 61.2351 16.7162 62.3346 11.9185 63.6339C8.72004 64.5335 5.82145 65.8329 3.42261 68.2317C-1.97477 73.9289 -0.875304 82.5248 5.9214 86.4229C11.3188 89.6213 17.3159 90.7208 23.4129 91.7203C30.8093 92.8198 38.4056 93.1196 45.902 93.0197C47.1014 93.0197 47.4013 92.6199 47.4013 91.5204C47.3013 87.2225 47.3013 83.0245 47.3013 78.7266ZM35.7069 79.5262C32.7084 79.4263 29.6099 79.5262 26.6114 79.5262H17.2159C16.2164 79.5262 15.9165 79.3263 15.9165 78.3268C16.0165 76.2278 15.9165 74.2288 15.8166 72.2298C15.8166 71.1303 16.2164 70.8304 17.2159 70.8304H35.9068C36.8064 70.8304 37.2062 71.1303 37.2062 72.0299C37.1063 74.0289 37.1063 76.0279 37.2062 78.0269C37.2062 79.1264 36.9064 79.5262 35.7069 79.5262ZM56.7967 36.8469C57.6963 36.4471 58.6958 36.0473 59.6953 35.7475C60.4949 35.5476 60.6948 35.0478 60.6948 34.2482V28.6509C60.6948 24.4529 60.6948 24.4529 56.5968 24.5529C55.4973 24.5529 55.2974 24.9527 55.3974 25.8523V35.7475C55.2974 36.8469 55.4973 37.4466 56.7967 36.8469ZM40.4047 24.5529C39.1053 24.5529 38.8054 24.9527 38.9054 26.1521C39.0053 28.6509 39.0053 31.2497 38.9054 33.7484C38.9054 34.748 39.2052 35.2477 40.1048 35.5476C40.9044 35.7475 41.5041 36.2472 42.5036 36.3472V26.5519C42.5036 24.5529 42.5036 24.6529 40.4047 24.5529ZM63.4934 33.7484C64.5929 33.1487 66.0922 33.1487 66.1921 31.7494C66.2921 29.7504 66.1921 27.6514 66.1921 25.6524C66.1921 24.4529 65.1926 24.9527 64.5929 24.8528C63.9932 24.6529 63.4934 24.8528 63.4934 25.6524C63.5934 28.3511 63.4934 30.9498 63.4934 33.7484ZM35.3071 24.8528C34.6075 24.8528 33.9078 24.6529 33.9078 25.7523C34.0078 27.2516 34.1077 28.8508 34.0078 30.2501C33.8079 32.0493 34.6075 32.9488 36.4066 33.4486C36.4066 30.8498 36.4066 28.2511 36.5066 25.7523C36.5066 24.7528 35.9068 24.7528 35.3071 24.8528Z" fill="#FFFFDE"/>
</g>
</svg>
