<svg width="45" height="45" viewBox="0 0 45 45" fill="none" xmlns="http://www.w3.org/2000/svg">
<g id="&#240;&#159;&#166;&#134; icon &#34;google contained fill&#34;">
<path id="Vector" fill-rule="evenodd" clip-rule="evenodd" d="M22.5 0C10.0734 0 0 10.0738 0 22.4996C0 34.9262 10.0734 45 22.5 45C34.9258 45 45 34.9264 45 22.4996C45 10.0738 34.9258 0 22.5 0ZM22.7629 35.6595C15.5105 35.6595 9.63643 29.7705 9.63643 22.4998C9.63643 15.2293 15.5105 9.34033 22.7629 9.34033C26.3072 9.34033 29.2682 10.648 31.5413 12.7701L27.8406 16.4795V16.4711C26.4626 15.1551 24.7153 14.4809 22.7629 14.4809C18.4312 14.4809 14.9118 18.149 14.9118 22.4919C14.9118 26.8339 18.4314 30.5109 22.7629 30.5109C26.6927 30.5109 29.3668 28.2574 29.9171 25.1649H22.7629V20.0325H35.1094C35.2736 20.9123 35.3634 21.8336 35.3634 22.7959C35.3634 30.3135 30.3433 35.6595 22.7629 35.6595Z" fill="black"/>
</g>
</svg>
