<svg width="40" height="40" viewBox="0 0 40 40" fill="none" xmlns="http://www.w3.org/2000/svg">
<g id="&#240;&#159;&#166;&#134; icon &#34;Gender female&#34;">
<path id="Vector" d="M21.25 24.9134C23.7738 24.5954 26.0816 23.3276 27.7035 21.368C29.3255 19.4084 30.1397 16.9044 29.9804 14.3656C29.8211 11.8268 28.7003 9.44419 26.8461 7.70271C24.9919 5.96123 22.5438 4.99182 20 4.99182C17.4563 4.99182 15.0081 5.96123 13.1539 7.70271C11.2998 9.44419 10.1789 11.8268 10.0196 14.3656C9.86034 16.9044 10.6745 19.4084 12.2965 21.368C13.9184 23.3276 16.2262 24.5954 18.75 24.9134V27.5H12.5V30H18.75V35H21.25V30H27.5V27.5H21.25V24.9134ZM12.5 15C12.5 13.5167 12.9399 12.0666 13.764 10.8332C14.5881 9.59987 15.7594 8.63857 17.1299 8.07092C18.5003 7.50326 20.0083 7.35473 21.4632 7.64412C22.9181 7.93351 24.2544 8.64782 25.3033 9.69671C26.3522 10.7456 27.0665 12.082 27.3559 13.5368C27.6453 14.9917 27.4968 16.4997 26.9291 17.8701C26.3615 19.2406 25.4002 20.4119 24.1668 21.236C22.9334 22.0601 21.4834 22.5 20 22.5C18.0116 22.4978 16.1052 21.707 14.6991 20.3009C13.2931 18.8949 12.5022 16.9885 12.5 15Z" fill="black"/>
</g>
</svg>
